<svg xmlns="http://www.w3.org/2000/svg" xmlns:xlink="http://www.w3.org/1999/xlink" width="500" zoomAndPan="magnify" viewBox="0 0 375 374.999991" height="500" preserveAspectRatio="xMidYMid meet" version="1.0"><defs><g/><clipPath id="ac8293fa30"><path d="M 12.070312 276 L 363 276 L 363 346 L 12.070312 346 Z M 12.070312 276 " clip-rule="nonzero"/></clipPath></defs><rect x="-37.5" width="450" fill="#ffffff" y="-37.499999" height="449.999989" fill-opacity="1"/><rect x="-37.5" width="450" fill="#ffffff" y="-37.499999" height="449.999989" fill-opacity="1"/><rect x="-37.5" width="450" fill="#ffffff" y="-37.499999" height="449.999989" fill-opacity="1"/><g clip-path="url(#ac8293fa30)"><path fill="#100f0d" d="M 359.710938 283.285156 C 359.464844 284.042969 358.957031 284.644531 358.257812 284.988281 C 356.027344 286.117188 352.445312 287.847656 348.078125 289.703125 C 332.5625 296.328125 316.019531 299.683594 298.941406 299.683594 L 76.1875 299.683594 C 59.097656 299.683594 42.566406 296.328125 27.046875 289.703125 C 22.683594 287.847656 19.097656 286.117188 16.867188 284.988281 C 16.171875 284.644531 15.652344 284.042969 15.417969 283.285156 C 15.183594 282.542969 15.265625 281.746094 15.636719 281.058594 C 15.84375 280.675781 16.183594 280.398438 16.59375 280.277344 C 16.730469 280.234375 16.882812 280.21875 17.03125 280.21875 C 17.304688 280.21875 17.578125 280.289062 17.824219 280.425781 C 20.851562 282.144531 24.558594 283.863281 28.8125 285.554688 C 45.207031 292.066406 62.816406 295.367188 81.140625 295.367188 L 293.988281 295.367188 C 312.308594 295.367188 329.921875 292.066406 346.3125 285.554688 C 350.570312 283.863281 354.265625 282.144531 357.300781 280.425781 C 357.671875 280.21875 358.121094 280.164062 358.535156 280.277344 C 358.945312 280.398438 359.285156 280.675781 359.492188 281.058594 C 359.859375 281.746094 359.941406 282.542969 359.710938 283.285156 Z M 302.882812 330.648438 C 302.882812 337.382812 297.421875 342.851562 290.71875 342.851562 C 284.027344 342.851562 278.566406 337.382812 278.566406 330.648438 C 278.566406 323.914062 284.027344 318.441406 290.71875 318.441406 C 297.421875 318.441406 302.882812 323.914062 302.882812 330.648438 Z M 264.789062 324.585938 C 264.789062 319.347656 269.027344 315.089844 274.230469 315.089844 C 276.144531 315.089844 277.921875 315.667969 279.402344 316.65625 C 277.773438 317.949219 276.390625 319.554688 275.351562 321.382812 C 275.28125 321.34375 275.199219 321.300781 275.117188 321.273438 L 275.089844 321.261719 L 275.078125 321.261719 C 274.695312 321.109375 274.285156 321.011719 273.832031 321.011719 C 271.917969 321.011719 270.355469 322.578125 270.355469 324.515625 C 270.355469 325.453125 270.726562 326.289062 271.3125 326.921875 L 271.339844 326.9375 C 271.53125 327.15625 271.765625 327.335938 272.011719 327.484375 L 273.257812 328.460938 C 273.230469 328.820312 273.214844 329.164062 273.214844 329.519531 C 273.214844 331.085938 273.433594 332.613281 273.84375 334.054688 C 268.824219 333.847656 264.789062 329.683594 264.789062 324.585938 Z M 279.605469 312.367188 C 277.949219 311.417969 276.089844 310.816406 274.09375 310.675781 C 274.230469 310.386719 274.351562 310.101562 274.476562 309.851562 C 274.476562 309.851562 276.445312 303.886719 282.492188 307.75 L 282.519531 307.761719 Z M 101.269531 334.054688 C 101.679688 332.613281 101.910156 331.085938 101.910156 329.519531 C 101.910156 329.164062 101.898438 328.820312 101.871094 328.460938 L 103.101562 327.484375 C 103.363281 327.335938 103.582031 327.15625 103.785156 326.9375 L 103.8125 326.921875 C 104.402344 326.289062 104.773438 325.453125 104.773438 324.515625 C 104.773438 322.578125 103.210938 321.011719 101.296875 321.011719 C 100.84375 321.011719 100.433594 321.109375 100.050781 321.261719 L 100.035156 321.261719 L 100.007812 321.273438 C 99.925781 321.300781 99.84375 321.34375 99.761719 321.382812 C 98.722656 319.554688 97.355469 317.949219 95.726562 316.65625 C 97.203125 315.667969 98.984375 315.089844 100.898438 315.089844 C 106.097656 315.089844 110.339844 319.347656 110.339844 324.585938 C 110.339844 329.683594 106.304688 333.847656 101.269531 334.054688 Z M 84.398438 342.851562 C 77.707031 342.851562 72.246094 337.382812 72.246094 330.648438 C 72.246094 323.914062 77.707031 318.441406 84.398438 318.441406 C 91.101562 318.441406 96.5625 323.914062 96.5625 330.648438 C 96.5625 337.382812 91.101562 342.851562 84.398438 342.851562 Z M 95.519531 312.367188 L 92.59375 307.761719 L 92.632812 307.75 C 98.683594 303.886719 100.652344 309.851562 100.652344 309.851562 C 100.761719 310.101562 100.898438 310.386719 101.035156 310.675781 C 99.039062 310.816406 97.164062 311.417969 95.519531 312.367188 Z M 362.007812 279.683594 C 362.007812 279.671875 360.722656 276.015625 353.003906 276.964844 C 351.800781 277.113281 350.609375 277.375 349.433594 277.71875 L 309.859375 288.976562 C 302.675781 291.023438 295.273438 292.234375 287.804688 292.464844 C 287.117188 292.480469 286.433594 292.492188 285.777344 292.492188 L 89.335938 292.492188 C 88.691406 292.492188 88.007812 292.480469 87.324219 292.464844 C 79.855469 292.234375 72.449219 291.023438 65.265625 288.976562 L 25.695312 277.71875 C 24.515625 277.375 23.328125 277.113281 22.109375 276.964844 C 14.390625 276.015625 13.117188 279.683594 13.117188 279.683594 C 12.3125 281.167969 12.203125 282.875 12.789062 284.46875 C 13.324219 285.871094 14.417969 286.984375 15.761719 287.65625 C 18.046875 288.796875 21.601562 290.515625 25.925781 292.355469 C 41.8125 299.132812 58.710938 302.566406 76.1875 302.566406 L 77.15625 302.566406 L 77.15625 303.367188 C 77.15625 304.285156 77.882812 305.097656 78.800781 305.082031 C 79.785156 305.054688 80.703125 305.578125 81.195312 306.445312 L 84.246094 311.761719 C 84.300781 311.925781 84.371094 312.09375 84.464844 312.242188 L 85.027344 313.152344 C 76.378906 313.496094 69.453125 320.695312 69.453125 329.519531 C 69.453125 338.5625 76.71875 345.902344 85.683594 345.902344 C 92.128906 345.902344 97.695312 342.09375 100.3125 336.597656 C 100.84375 336.667969 101.363281 336.722656 101.910156 336.722656 C 109.039062 336.722656 114.816406 330.878906 114.816406 323.691406 C 114.816406 319.515625 112.871094 315.804688 109.835938 313.410156 C 110.914062 311.5 112.011719 309.757812 113.050781 308.203125 C 114.390625 306.195312 116.648438 304.988281 119.058594 304.988281 L 256.070312 304.988281 C 258.480469 304.988281 260.738281 306.195312 262.078125 308.203125 C 263.117188 309.757812 264.210938 311.5 265.28125 313.410156 C 262.253906 315.804688 260.3125 319.515625 260.3125 323.691406 C 260.3125 330.878906 266.085938 336.722656 273.214844 336.722656 C 273.75 336.722656 274.285156 336.667969 274.816406 336.597656 C 277.429688 342.09375 283 345.902344 289.445312 345.902344 C 298.40625 345.902344 305.671875 338.5625 305.671875 329.519531 C 305.671875 320.695312 298.75 313.496094 290.089844 313.152344 L 290.101562 313.152344 L 290.664062 312.242188 C 290.757812 312.09375 290.828125 311.925781 290.882812 311.761719 L 293.972656 306.363281 C 294.453125 305.523438 295.355469 305.097656 296.300781 305.082031 C 297.230469 305.054688 297.96875 304.300781 297.96875 303.367188 L 297.96875 302.566406 L 298.941406 302.566406 C 316.414062 302.566406 333.316406 299.132812 349.1875 292.355469 C 353.632812 290.460938 357.273438 288.699219 359.546875 287.558594 C 361.75 286.445312 363.035156 284.070312 362.652344 281.304688 C 362.570312 280.714844 362.335938 280.164062 362.007812 279.683594 " fill-opacity="1" fill-rule="nonzero"/></g><path fill="#100f0d" d="M 84.398438 335.785156 C 87.230469 335.785156 89.515625 333.476562 89.515625 330.648438 C 89.515625 327.800781 87.230469 325.507812 84.398438 325.507812 C 81.578125 325.507812 79.292969 327.800781 79.292969 330.648438 C 79.292969 333.476562 81.578125 335.785156 84.398438 335.785156 " fill-opacity="1" fill-rule="nonzero"/><path fill="#100f0d" d="M 84.398438 339.566406 C 79.757812 339.566406 75.804688 336.558594 74.378906 332.363281 C 75.105469 337.285156 79.304688 341.066406 84.398438 341.066406 C 89.5 341.066406 93.703125 337.285156 94.425781 332.363281 C 93.003906 336.558594 89.050781 339.566406 84.398438 339.566406 " fill-opacity="1" fill-rule="nonzero"/><path fill="#100f0d" d="M 102.527344 317.425781 C 105.457031 318.441406 107.5625 321.230469 107.5625 324.515625 C 107.5625 327.800781 105.457031 330.59375 102.527344 331.59375 C 105.976562 331.085938 108.617188 328.117188 108.617188 324.515625 C 108.617188 320.917969 105.976562 317.949219 102.527344 317.425781 " fill-opacity="1" fill-rule="nonzero"/><path fill="#100f0d" d="M 290.71875 335.785156 C 293.550781 335.785156 295.835938 333.476562 295.835938 330.648438 C 295.835938 327.800781 293.550781 325.507812 290.71875 325.507812 C 287.898438 325.507812 285.613281 327.800781 285.613281 330.648438 C 285.613281 333.476562 287.898438 335.785156 290.71875 335.785156 " fill-opacity="1" fill-rule="nonzero"/><path fill="#100f0d" d="M 290.71875 341.066406 C 295.820312 341.066406 300.023438 337.285156 300.746094 332.363281 C 299.3125 336.558594 295.371094 339.566406 290.71875 339.566406 C 286.066406 339.566406 282.125 336.558594 280.699219 332.363281 C 281.425781 337.285156 285.628906 341.066406 290.71875 341.066406 " fill-opacity="1" fill-rule="nonzero"/><path fill="#100f0d" d="M 267.566406 324.515625 C 267.566406 321.230469 269.671875 318.441406 272.601562 317.425781 C 269.152344 317.949219 266.511719 320.917969 266.511719 324.515625 C 266.511719 328.117188 269.152344 331.085938 272.601562 331.59375 C 269.671875 330.59375 267.566406 327.800781 267.566406 324.515625 " fill-opacity="1" fill-rule="nonzero"/><path fill="#000000" d="M 51.605469 159.136719 C 51.605469 156.914062 51.660156 154.6875 51.769531 152.46875 C 51.878906 150.246094 52.042969 148.027344 52.261719 145.816406 C 52.480469 143.601562 52.753906 141.394531 53.078125 139.195312 C 53.40625 136.996094 53.785156 134.804688 54.21875 132.625 C 54.652344 130.441406 55.140625 128.273438 55.683594 126.113281 C 56.222656 123.957031 56.816406 121.816406 57.460938 119.6875 C 58.109375 117.558594 58.808594 115.445312 59.554688 113.351562 C 60.304688 111.257812 61.105469 109.183594 61.960938 107.128906 C 62.8125 105.074219 63.710938 103.042969 64.664062 101.03125 C 65.617188 99.019531 66.617188 97.035156 67.664062 95.074219 C 68.714844 93.109375 69.8125 91.175781 70.957031 89.269531 C 72.101562 87.359375 73.289062 85.484375 74.527344 83.632812 C 75.761719 81.785156 77.042969 79.964844 78.371094 78.179688 C 79.695312 76.394531 81.066406 74.640625 82.476562 72.921875 C 83.890625 71.203125 85.34375 69.519531 86.835938 67.871094 C 88.332031 66.222656 89.867188 64.613281 91.441406 63.039062 C 93.015625 61.464844 94.625 59.933594 96.273438 58.441406 C 97.925781 56.945312 99.609375 55.492188 101.328125 54.082031 C 103.050781 52.671875 104.804688 51.304688 106.59375 49.980469 C 108.378906 48.652344 110.199219 47.375 112.050781 46.136719 C 113.898438 44.902344 115.78125 43.714844 117.6875 42.570312 C 119.597656 41.425781 121.535156 40.332031 123.496094 39.28125 C 125.460938 38.234375 127.449219 37.234375 129.460938 36.28125 C 131.472656 35.332031 133.507812 34.429688 135.5625 33.578125 C 137.617188 32.726562 139.695312 31.929688 141.789062 31.179688 C 143.886719 30.429688 146 29.730469 148.128906 29.085938 C 150.257812 28.441406 152.402344 27.847656 154.5625 27.308594 C 156.722656 26.765625 158.890625 26.28125 161.074219 25.847656 C 163.257812 25.410156 165.449219 25.03125 167.652344 24.707031 C 169.855469 24.378906 172.0625 24.105469 174.277344 23.890625 C 176.492188 23.671875 178.710938 23.507812 180.933594 23.398438 C 183.15625 23.289062 185.382812 23.234375 187.609375 23.234375 C 189.832031 23.234375 192.058594 23.289062 194.28125 23.398438 C 196.503906 23.507812 198.722656 23.671875 200.9375 23.890625 C 203.152344 24.105469 205.363281 24.378906 207.5625 24.707031 C 209.765625 25.03125 211.957031 25.410156 214.140625 25.847656 C 216.324219 26.28125 218.496094 26.765625 220.652344 27.308594 C 222.8125 27.847656 224.957031 28.441406 227.085938 29.085938 C 229.214844 29.730469 231.328125 30.429688 233.425781 31.179688 C 235.519531 31.929688 237.597656 32.726562 239.652344 33.578125 C 241.710938 34.429688 243.742188 35.332031 245.753906 36.28125 C 247.769531 37.234375 249.753906 38.234375 251.71875 39.28125 C 253.679688 40.332031 255.617188 41.425781 257.527344 42.570312 C 259.433594 43.714844 261.316406 44.902344 263.164062 46.136719 C 265.015625 47.375 266.835938 48.652344 268.625 49.980469 C 270.410156 51.304688 272.164062 52.671875 273.886719 54.082031 C 275.605469 55.492188 277.292969 56.945312 278.941406 58.441406 C 280.589844 59.933594 282.203125 61.464844 283.773438 63.039062 C 285.347656 64.613281 286.882812 66.222656 288.378906 67.871094 C 289.871094 69.519531 291.324219 71.203125 292.738281 72.921875 C 294.148438 74.640625 295.519531 76.394531 296.84375 78.179688 C 298.171875 79.964844 299.453125 81.785156 300.6875 83.632812 C 301.925781 85.484375 303.117188 87.359375 304.261719 89.269531 C 305.402344 91.175781 306.5 93.109375 307.550781 95.074219 C 308.597656 97.035156 309.601562 99.019531 310.550781 101.03125 C 311.503906 103.042969 312.40625 105.074219 313.257812 107.128906 C 314.109375 109.183594 314.910156 111.257812 315.660156 113.351562 C 316.410156 115.445312 317.105469 117.558594 317.753906 119.6875 C 318.398438 121.816406 318.992188 123.957031 319.53125 126.113281 C 320.074219 128.273438 320.5625 130.441406 320.996094 132.625 C 321.429688 134.804688 321.808594 136.996094 322.136719 139.195312 C 322.464844 141.394531 322.734375 143.601562 322.953125 145.816406 C 323.171875 148.027344 323.335938 150.246094 323.445312 152.46875 C 323.554688 154.6875 323.609375 156.914062 323.609375 159.136719 C 323.609375 161.359375 323.554688 163.582031 323.445312 165.804688 C 323.335938 168.027344 323.171875 170.242188 322.953125 172.457031 C 322.734375 174.671875 322.464844 176.878906 322.136719 179.078125 C 321.808594 181.277344 321.429688 183.46875 320.996094 185.648438 C 320.5625 187.832031 320.074219 190 319.53125 192.15625 C 318.992188 194.316406 318.398438 196.457031 317.753906 198.585938 C 317.105469 200.714844 316.410156 202.824219 315.660156 204.921875 C 314.910156 207.015625 314.109375 209.089844 313.257812 211.144531 C 312.40625 213.199219 311.503906 215.230469 310.550781 217.242188 C 309.601562 219.253906 308.597656 221.238281 307.550781 223.199219 C 306.5 225.160156 305.402344 227.097656 304.261719 229.003906 C 303.117188 230.910156 301.925781 232.789062 300.6875 234.640625 C 299.453125 236.488281 298.171875 238.304688 296.84375 240.09375 C 295.519531 241.878906 294.148438 243.632812 292.738281 245.351562 C 291.324219 247.070312 289.871094 248.753906 288.378906 250.402344 C 286.882812 252.050781 285.347656 253.660156 283.773438 255.234375 C 282.203125 256.804688 280.589844 258.339844 278.941406 259.832031 C 277.292969 261.328125 275.605469 262.777344 273.886719 264.191406 C 272.164062 265.601562 270.410156 266.96875 268.625 268.292969 C 266.835938 269.617188 265.015625 270.898438 263.164062 272.132812 C 261.316406 273.371094 259.433594 274.558594 257.527344 275.703125 C 255.617188 276.847656 253.679688 277.941406 251.71875 278.992188 C 249.753906 280.039062 247.769531 281.039062 245.753906 281.988281 C 243.742188 282.941406 241.710938 283.84375 239.652344 284.691406 C 237.597656 285.542969 235.519531 286.34375 233.425781 287.09375 C 231.328125 287.84375 229.214844 288.539062 227.085938 289.1875 C 224.957031 289.832031 222.8125 290.425781 220.652344 290.964844 C 218.496094 291.503906 216.324219 291.992188 214.140625 292.425781 C 211.957031 292.859375 209.765625 293.242188 207.5625 293.566406 C 205.363281 293.894531 203.152344 294.164062 200.9375 294.382812 C 198.722656 294.601562 196.503906 294.765625 194.28125 294.875 C 192.058594 294.984375 189.832031 295.039062 187.609375 295.039062 C 185.382812 295.039062 183.15625 294.984375 180.933594 294.875 C 178.710938 294.765625 176.492188 294.601562 174.277344 294.382812 C 172.0625 294.164062 169.855469 293.894531 167.652344 293.566406 C 165.449219 293.242188 163.257812 292.859375 161.074219 292.425781 C 158.890625 291.992188 156.722656 291.503906 154.5625 290.964844 C 152.402344 290.425781 150.257812 289.832031 148.128906 289.1875 C 146 288.539062 143.886719 287.84375 141.789062 287.09375 C 139.695312 286.34375 137.617188 285.542969 135.5625 284.691406 C 133.507812 283.84375 131.472656 282.941406 129.460938 281.988281 C 127.449219 281.039062 125.460938 280.039062 123.496094 278.992188 C 121.535156 277.941406 119.597656 276.847656 117.6875 275.703125 C 115.78125 274.558594 113.898438 273.371094 112.050781 272.132812 C 110.199219 270.898438 108.378906 269.617188 106.59375 268.292969 C 104.804688 266.96875 103.050781 265.601562 101.328125 264.191406 C 99.609375 262.777344 97.925781 261.328125 96.273438 259.832031 C 94.625 258.339844 93.015625 256.804688 91.441406 255.234375 C 89.867188 253.660156 88.332031 252.050781 86.835938 250.402344 C 85.34375 248.753906 83.890625 247.070312 82.476562 245.351562 C 81.066406 243.632812 79.695312 241.878906 78.371094 240.09375 C 77.042969 238.304688 75.761719 236.488281 74.527344 234.640625 C 73.289062 232.789062 72.101562 230.910156 70.957031 229.003906 C 69.8125 227.097656 68.714844 225.160156 67.664062 223.199219 C 66.617188 221.238281 65.617188 219.253906 64.664062 217.242188 C 63.710938 215.230469 62.8125 213.199219 61.960938 211.144531 C 61.105469 209.089844 60.304688 207.015625 59.554688 204.921875 C 58.808594 202.824219 58.109375 200.714844 57.460938 198.585938 C 56.816406 196.457031 56.222656 194.316406 55.683594 192.15625 C 55.140625 190 54.652344 187.832031 54.21875 185.648438 C 53.785156 183.46875 53.40625 181.277344 53.078125 179.078125 C 52.753906 176.878906 52.480469 174.671875 52.261719 172.457031 C 52.042969 170.242188 51.878906 168.027344 51.769531 165.804688 C 51.660156 163.582031 51.605469 161.359375 51.605469 159.136719 M 128.835938 159.136719 C 128.835938 161.058594 128.929688 162.976562 129.121094 164.890625 C 129.308594 166.808594 129.589844 168.707031 129.964844 170.59375 C 130.34375 172.480469 130.808594 174.34375 131.367188 176.183594 C 131.925781 178.023438 132.574219 179.832031 133.3125 181.609375 C 134.046875 183.386719 134.871094 185.125 135.777344 186.820312 C 136.683594 188.515625 137.671875 190.164062 138.742188 191.761719 C 139.8125 193.363281 140.957031 194.90625 142.175781 196.394531 C 143.398438 197.878906 144.691406 199.304688 146.050781 200.664062 C 147.410156 202.023438 148.835938 203.3125 150.324219 204.535156 C 151.8125 205.753906 153.355469 206.898438 154.957031 207.964844 C 156.558594 209.035156 158.207031 210.023438 159.902344 210.929688 C 161.601562 211.835938 163.339844 212.65625 165.117188 213.394531 C 166.894531 214.128906 168.707031 214.777344 170.546875 215.335938 C 172.390625 215.894531 174.253906 216.359375 176.140625 216.734375 C 178.03125 217.109375 179.933594 217.390625 181.847656 217.582031 C 183.761719 217.769531 185.683594 217.863281 187.609375 217.863281 C 189.53125 217.863281 191.453125 217.769531 193.367188 217.582031 C 195.285156 217.390625 197.183594 217.109375 199.074219 216.734375 C 200.960938 216.359375 202.824219 215.894531 204.667969 215.335938 C 206.511719 214.777344 208.320312 214.128906 210.097656 213.394531 C 211.875 212.65625 213.613281 211.835938 215.3125 210.929688 C 217.007812 210.023438 218.660156 209.035156 220.257812 207.964844 C 221.859375 206.898438 223.402344 205.753906 224.890625 204.535156 C 226.378906 203.3125 227.804688 202.023438 229.164062 200.664062 C 230.527344 199.304688 231.816406 197.878906 233.039062 196.394531 C 234.257812 194.90625 235.402344 193.363281 236.472656 191.761719 C 237.542969 190.164062 238.53125 188.515625 239.4375 186.820312 C 240.347656 185.125 241.167969 183.386719 241.90625 181.609375 C 242.640625 179.832031 243.289062 178.023438 243.847656 176.183594 C 244.40625 174.34375 244.875 172.480469 245.25 170.59375 C 245.625 168.707031 245.90625 166.808594 246.09375 164.890625 C 246.285156 162.976562 246.378906 161.058594 246.378906 159.136719 C 246.378906 157.210938 246.285156 155.292969 246.09375 153.378906 C 245.90625 151.464844 245.625 149.566406 245.25 147.679688 C 244.875 145.792969 244.40625 143.929688 243.847656 142.089844 C 243.289062 140.246094 242.640625 138.4375 241.90625 136.664062 C 241.167969 134.886719 240.347656 133.148438 239.4375 131.453125 C 238.53125 129.757812 237.542969 128.109375 236.472656 126.507812 C 235.402344 124.910156 234.257812 123.367188 233.039062 121.878906 C 231.816406 120.394531 230.527344 118.96875 229.164062 117.609375 C 227.804688 116.25 226.378906 114.960938 224.890625 113.738281 C 223.402344 112.519531 221.859375 111.375 220.257812 110.304688 C 218.660156 109.238281 217.007812 108.25 215.3125 107.34375 C 213.613281 106.4375 211.875 105.613281 210.097656 104.878906 C 208.320312 104.144531 206.511719 103.496094 204.667969 102.9375 C 202.824219 102.378906 200.960938 101.914062 199.074219 101.539062 C 197.183594 101.160156 195.285156 100.878906 193.367188 100.691406 C 191.453125 100.503906 189.53125 100.410156 187.609375 100.410156 C 185.683594 100.410156 183.761719 100.503906 181.847656 100.691406 C 179.933594 100.878906 178.03125 101.160156 176.140625 101.539062 C 174.253906 101.914062 172.390625 102.378906 170.546875 102.9375 C 168.707031 103.496094 166.894531 104.144531 165.117188 104.878906 C 163.339844 105.613281 161.601562 106.4375 159.902344 107.34375 C 158.207031 108.25 156.558594 109.238281 154.957031 110.304688 C 153.355469 111.375 151.8125 112.519531 150.324219 113.738281 C 148.835938 114.960938 147.410156 116.25 146.050781 117.609375 C 144.691406 118.96875 143.398438 120.394531 142.175781 121.878906 C 140.957031 123.367188 139.8125 124.910156 138.742188 126.507812 C 137.671875 128.109375 136.683594 129.757812 135.777344 131.453125 C 134.871094 133.148438 134.046875 134.886719 133.3125 136.664062 C 132.574219 138.4375 131.925781 140.246094 131.367188 142.089844 C 130.808594 143.929688 130.34375 145.792969 129.964844 147.679688 C 129.589844 149.566406 129.308594 151.464844 129.121094 153.378906 C 128.929688 155.292969 128.835938 157.210938 128.835938 159.136719 Z M 128.835938 159.136719 " fill-opacity="1" fill-rule="nonzero"/><g fill="#ffffff" fill-opacity="1"><g transform="translate(136.443884, 224.854842)"><g><path d="M -21.671875 -9.65625 C -20.390625 -10.90625 -18.929688 -11.6875 -17.296875 -12 C -15.671875 -12.320312 -13.984375 -12.132812 -12.234375 -11.4375 C -10.484375 -10.75 -8.800781 -9.578125 -7.1875 -7.921875 C -5.84375 -6.546875 -4.8125 -5.296875 -4.09375 -4.171875 C -3.382812 -3.054688 -2.773438 -1.757812 -2.265625 -0.28125 L -7.25 4.578125 C -7.738281 2.984375 -8.390625 1.457031 -9.203125 0 C -10.023438 -1.445312 -10.90625 -2.648438 -11.84375 -3.609375 C -12.664062 -4.453125 -13.410156 -4.921875 -14.078125 -5.015625 C -14.742188 -5.117188 -15.296875 -4.957031 -15.734375 -4.53125 C -16.023438 -4.25 -16.195312 -3.925781 -16.25 -3.5625 C -16.3125 -3.195312 -16.285156 -2.734375 -16.171875 -2.171875 C -16.054688 -1.609375 -15.597656 -0.257812 -14.796875 1.875 C -14.109375 3.820312 -13.71875 5.414062 -13.625 6.65625 C -13.539062 7.894531 -13.710938 9.035156 -14.140625 10.078125 C -14.578125 11.128906 -15.304688 12.15625 -16.328125 13.15625 C -18.242188 15.019531 -20.40625 15.773438 -22.8125 15.421875 C -25.226562 15.078125 -27.625 13.6875 -30 11.25 C -32.09375 9.113281 -33.726562 6.453125 -34.90625 3.265625 L -28.921875 0.765625 C -27.921875 3.566406 -26.734375 5.671875 -25.359375 7.078125 C -24.648438 7.796875 -24.003906 8.195312 -23.421875 8.28125 C -22.847656 8.375 -22.375 8.234375 -22 7.859375 C -21.59375 7.460938 -21.429688 6.894531 -21.515625 6.15625 C -21.609375 5.425781 -22.132812 3.71875 -23.09375 1.03125 C -24.039062 -1.539062 -24.390625 -3.617188 -24.140625 -5.203125 C -23.898438 -6.796875 -23.078125 -8.28125 -21.671875 -9.65625 Z M -21.671875 -9.65625 "/></g></g></g><g fill="#ffffff" fill-opacity="1"><g transform="translate(119.797533, 208.269214)"><g><path d="M -12.4375 -24.90625 L -8.5 -17.015625 L -15.828125 -6.953125 L -13.5625 -5.5 L -4.90625 -9.828125 L -1.390625 -2.796875 L -27.28125 10.125 L -30.796875 3.09375 L -19.546875 -2.515625 C -20.421875 -2.523438 -21.878906 -2.6875 -23.921875 -3 L -34.578125 -4.484375 L -38.390625 -12.125 L -22.71875 -9.75 Z M -12.4375 -24.90625 "/></g></g></g><g fill="#ffffff" fill-opacity="1"><g transform="translate(107.329773, 183.72774)"><g><path d="M -2.546875 -20.71875 L -7.75 -18.65625 L -6.59375 -9.3125 L -1.046875 -8.53125 L 0 0 L -29.984375 -5.828125 L -31.25 -16.203125 L -3.578125 -29.203125 Z M -13.90625 -16.25 L -18.46875 -14.4375 C -19.488281 -14.019531 -20.800781 -13.503906 -22.40625 -12.890625 C -24.019531 -12.273438 -25.179688 -11.859375 -25.890625 -11.640625 C -25.210938 -11.609375 -24.082031 -11.515625 -22.5 -11.359375 C -20.925781 -11.203125 -17.8125 -10.796875 -13.15625 -10.140625 Z M -13.90625 -16.25 "/></g></g></g><g fill="#ffffff" fill-opacity="1"><g transform="translate(104.177951, 154.627894)"><g><path d="M 3.140625 -15.578125 L 1.59375 -7.921875 L -20.515625 -12.375 L -21.90625 -5.453125 L -28.171875 -6.71875 L -23.84375 -28.203125 L -17.578125 -26.9375 L -18.96875 -20.03125 Z M 3.140625 -15.578125 "/></g></g></g><g fill="#ffffff" fill-opacity="1"><g transform="translate(109.151604, 130.826186)"><g><path d="M 9.4375 -17.984375 L 1.453125 -2.765625 L -24.171875 -16.203125 L -16.1875 -31.421875 L -10.625 -28.5 L -14.984375 -20.203125 L -10.96875 -18.09375 L -6.9375 -25.78125 L -1.359375 -22.859375 L -5.390625 -15.171875 L -0.5625 -12.640625 L 3.796875 -20.9375 Z M 9.4375 -17.984375 "/></g></g></g><g fill="#ffffff" fill-opacity="1"><g transform="translate(119.663935, 110.729947)"><g><path d="M 8.90625 -22 C 10.195312 -20.757812 11.03125 -19.328125 11.40625 -17.703125 C 11.78125 -16.078125 11.648438 -14.378906 11.015625 -12.609375 C 10.390625 -10.847656 9.28125 -9.132812 7.6875 -7.46875 C 6.351562 -6.070312 5.140625 -5 4.046875 -4.25 C 2.953125 -3.5 1.671875 -2.835938 0.203125 -2.265625 L -4.828125 -7.078125 C -3.242188 -7.640625 -1.738281 -8.351562 -0.3125 -9.21875 C 1.113281 -10.082031 2.289062 -11 3.21875 -11.96875 C 4.019531 -12.8125 4.460938 -13.566406 4.546875 -14.234375 C 4.628906 -14.910156 4.441406 -15.460938 3.984375 -15.890625 C 3.703125 -16.160156 3.378906 -16.316406 3.015625 -16.359375 C 2.648438 -16.410156 2.1875 -16.367188 1.625 -16.234375 C 1.070312 -16.097656 -0.257812 -15.597656 -2.375 -14.734375 C -4.300781 -13.972656 -5.878906 -13.53125 -7.109375 -13.40625 C -8.335938 -13.28125 -9.484375 -13.410156 -10.546875 -13.796875 C -11.617188 -14.191406 -12.671875 -14.882812 -13.703125 -15.875 C -15.628906 -17.71875 -16.457031 -19.851562 -16.1875 -22.28125 C -15.925781 -24.707031 -14.617188 -27.148438 -12.265625 -29.609375 C -10.203125 -31.765625 -7.59375 -33.488281 -4.4375 -34.78125 L -1.734375 -28.875 C -4.503906 -27.78125 -6.566406 -26.519531 -7.921875 -25.09375 C -8.617188 -24.363281 -9 -23.707031 -9.0625 -23.125 C -9.132812 -22.550781 -8.976562 -22.082031 -8.59375 -21.71875 C -8.1875 -21.332031 -7.613281 -21.191406 -6.875 -21.296875 C -6.144531 -21.410156 -4.457031 -21.992188 -1.8125 -23.046875 C 0.71875 -24.085938 2.78125 -24.507812 4.375 -24.3125 C 5.976562 -24.125 7.488281 -23.351562 8.90625 -22 Z M 8.90625 -22 "/></g></g></g><g fill="#ffffff" fill-opacity="1"><g transform="translate(137.266107, 93.574676)"><g/></g></g><g fill="#ffffff" fill-opacity="1"><g transform="translate(145.966786, 86.177822)"><g><path d="M 24.125 -23.234375 C 25.644531 -18.617188 25.671875 -14.734375 24.203125 -11.578125 C 22.734375 -8.421875 19.8125 -6.125 15.4375 -4.6875 C 11.132812 -3.257812 7.429688 -3.375 4.328125 -5.03125 C 1.222656 -6.695312 -1.085938 -9.835938 -2.609375 -14.453125 C -4.117188 -19.023438 -4.128906 -22.894531 -2.640625 -26.0625 C -1.148438 -29.226562 1.773438 -31.535156 6.140625 -32.984375 C 10.503906 -34.421875 14.207031 -34.3125 17.25 -32.65625 C 20.300781 -31.007812 22.59375 -27.867188 24.125 -23.234375 Z M 5.234375 -17 C 6.984375 -11.6875 9.703125 -9.640625 13.390625 -10.859375 C 15.265625 -11.472656 16.441406 -12.578125 16.921875 -14.171875 C 17.410156 -15.765625 17.207031 -17.925781 16.3125 -20.65625 C 15.40625 -23.40625 14.269531 -25.285156 12.90625 -26.296875 C 11.550781 -27.304688 9.960938 -27.507812 8.140625 -26.90625 C 4.421875 -25.675781 3.453125 -22.375 5.234375 -17 Z M 5.234375 -17 "/></g></g></g><g fill="#ffffff" fill-opacity="1"><g transform="translate(176.196601, 76.539716)"><g><path d="M 11.296875 -10.15625 L 10.9375 0.375 L 3.125 0.109375 L 4.125 -28.8125 L 13.609375 -28.484375 C 21.460938 -28.210938 25.289062 -25.226562 25.09375 -19.53125 C 24.976562 -16.175781 23.253906 -13.644531 19.921875 -11.9375 L 27.90625 0.96875 L 19.046875 0.65625 L 13.28125 -10.09375 Z M 11.5 -16.015625 L 12.96875 -15.96875 C 15.6875 -15.875 17.085938 -17.035156 17.171875 -19.453125 C 17.242188 -21.441406 15.945312 -22.476562 13.28125 -22.5625 L 11.734375 -22.625 Z M 11.5 -16.015625 "/></g></g></g><g fill="#ffffff" fill-opacity="1"><g transform="translate(204.407993, 78.639767)"><g/></g></g><g fill="#ffffff" fill-opacity="1"><g transform="translate(216.612946, 82.275967)"><g/></g></g><g fill="#ffffff" fill-opacity="1"><g transform="translate(227.622851, 86.714431)"><g><path d="M 22.859375 6.390625 C 21.773438 7.816406 20.445312 8.804688 18.875 9.359375 C 17.300781 9.910156 15.597656 9.972656 13.765625 9.546875 C 11.941406 9.117188 10.113281 8.207031 8.28125 6.8125 C 6.738281 5.632812 5.53125 4.546875 4.65625 3.546875 C 3.789062 2.546875 3 1.347656 2.28125 -0.046875 L 6.515625 -5.59375 C 7.234375 -4.082031 8.097656 -2.664062 9.109375 -1.34375 C 10.128906 -0.03125 11.171875 1.035156 12.234375 1.859375 C 13.160156 2.566406 13.960938 2.921875 14.640625 2.921875 C 15.316406 2.929688 15.847656 2.6875 16.234375 2.1875 C 16.472656 1.875 16.597656 1.53125 16.609375 1.15625 C 16.617188 0.789062 16.519531 0.34375 16.3125 -0.1875 C 16.113281 -0.726562 15.46875 -2.003906 14.375 -4.015625 C 13.40625 -5.835938 12.785156 -7.351562 12.515625 -8.5625 C 12.253906 -9.769531 12.257812 -10.925781 12.53125 -12.03125 C 12.800781 -13.132812 13.375 -14.253906 14.25 -15.390625 C 15.863281 -17.503906 17.890625 -18.566406 20.328125 -18.578125 C 22.773438 -18.585938 25.347656 -17.5625 28.046875 -15.5 C 30.421875 -13.6875 32.429688 -11.285156 34.078125 -8.296875 L 28.515625 -4.953125 C 27.109375 -7.578125 25.625 -9.488281 24.0625 -10.6875 C 23.257812 -11.300781 22.5625 -11.609375 21.96875 -11.609375 C 21.382812 -11.609375 20.9375 -11.394531 20.625 -10.96875 C 20.28125 -10.519531 20.203125 -9.9375 20.390625 -9.21875 C 20.585938 -8.5 21.359375 -6.882812 22.703125 -4.375 C 24.015625 -1.976562 24.664062 0.0234375 24.65625 1.640625 C 24.644531 3.253906 24.046875 4.835938 22.859375 6.390625 Z M 22.859375 6.390625 "/></g></g></g><g fill="#ffffff" fill-opacity="1"><g transform="translate(246.499118, 100.705807)"><g><path d="M 15.921875 22.84375 L 10.875 15.59375 L 16.6875 4.578125 L 14.21875 3.484375 L 6.28125 9.015625 L 1.78125 2.5625 L 25.515625 -13.984375 L 30.015625 -7.53125 L 19.703125 -0.34375 C 20.566406 -0.46875 22.035156 -0.519531 24.109375 -0.5 L 34.859375 -0.59375 L 39.75 6.421875 L 23.890625 6.34375 Z M 15.921875 22.84375 "/></g></g></g><g fill="#ffffff" fill-opacity="1"><g transform="translate(262.400138, 123.17551)"><g><path d="M 5.53125 20.125 L 10.390625 17.328125 L 7.890625 8.25 L 2.28125 8.28125 L 0 0 L 30.515625 1.40625 L 33.28125 11.484375 L 7.78125 28.375 Z M 16.125 14.0625 L 20.375 11.59375 C 21.320312 11.039062 22.546875 10.34375 24.046875 9.5 C 25.554688 8.65625 26.644531 8.070312 27.3125 7.75 C 26.632812 7.820312 25.5 7.890625 23.90625 7.953125 C 22.320312 8.023438 19.1875 8.082031 14.5 8.125 Z M 16.125 14.0625 "/></g></g></g><g fill="#ffffff" fill-opacity="1"><g transform="translate(269.745268, 151.508747)"><g><path d="M -0.84375 15.875 L -0.421875 8.0625 L 22.09375 9.25 L 22.46875 2.203125 L 28.84375 2.546875 L 27.671875 24.4375 L 21.296875 24.09375 L 21.671875 17.0625 Z M -0.84375 15.875 "/></g></g></g><g fill="#ffffff" fill-opacity="1"><g transform="translate(268.284513, 175.780361)"><g><path d="M -6.71875 19.171875 L -1.03125 2.953125 L 26.28125 12.515625 L 20.59375 28.734375 L 14.65625 26.65625 L 17.765625 17.8125 L 13.484375 16.3125 L 10.609375 24.484375 L 4.671875 22.40625 L 7.546875 14.234375 L 2.40625 12.4375 L -0.703125 21.28125 Z M -6.71875 19.171875 "/></g></g></g><g fill="#ffffff" fill-opacity="1"><g transform="translate(260.805477, 197.190519)"><g><path d="M -5.625 23.0625 C -7.082031 22.019531 -8.113281 20.722656 -8.71875 19.171875 C -9.320312 17.617188 -9.441406 15.921875 -9.078125 14.078125 C -8.710938 12.242188 -7.859375 10.382812 -6.515625 8.5 C -5.398438 6.925781 -4.351562 5.6875 -3.375 4.78125 C -2.40625 3.882812 -1.238281 3.050781 0.125 2.28125 L 5.8125 6.3125 C 4.320312 7.082031 2.929688 8 1.640625 9.0625 C 0.359375 10.125 -0.671875 11.203125 -1.453125 12.296875 C -2.128906 13.253906 -2.457031 14.066406 -2.4375 14.734375 C -2.414062 15.410156 -2.148438 15.929688 -1.640625 16.296875 C -1.316406 16.523438 -0.972656 16.632812 -0.609375 16.625 C -0.242188 16.625 0.203125 16.515625 0.734375 16.296875 C 1.265625 16.078125 2.515625 15.390625 4.484375 14.234375 C 6.285156 13.203125 7.785156 12.53125 8.984375 12.21875 C 10.179688 11.914062 11.332031 11.878906 12.4375 12.109375 C 13.550781 12.347656 14.691406 12.878906 15.859375 13.703125 C 18.023438 15.253906 19.15625 17.25 19.25 19.6875 C 19.34375 22.132812 18.40625 24.738281 16.4375 27.5 C 14.707031 29.9375 12.375 32.023438 9.4375 33.765625 L 5.90625 28.328125 C 8.488281 26.835938 10.347656 25.289062 11.484375 23.6875 C 12.066406 22.863281 12.347656 22.160156 12.328125 21.578125 C 12.316406 20.992188 12.09375 20.550781 11.65625 20.25 C 11.195312 19.914062 10.613281 19.859375 9.90625 20.078125 C 9.195312 20.296875 7.609375 21.117188 5.140625 22.546875 C 2.773438 23.929688 0.789062 24.644531 -0.8125 24.6875 C -2.425781 24.738281 -4.03125 24.195312 -5.625 23.0625 Z M -5.625 23.0625 "/></g></g></g><g fill="#ffffff" fill-opacity="1"><g transform="translate(245.880426, 216.721258)"><g/></g></g></svg>